<?xml version="1.0" encoding="UTF-8" standalone="no"?>
<!-- Created with Inkscape (http://www.inkscape.org/) -->

<svg
   xmlns:dc="http://purl.org/dc/elements/1.1/"
   xmlns:cc="http://creativecommons.org/ns#"
   xmlns:rdf="http://www.w3.org/1999/02/22-rdf-syntax-ns#"
   xmlns:svg="http://www.w3.org/2000/svg"
   xmlns="http://www.w3.org/2000/svg"
   xmlns:sodipodi="http://sodipodi.sourceforge.net/DTD/sodipodi-0.dtd"
   xmlns:inkscape="http://www.inkscape.org/namespaces/inkscape"
   width="210mm"
   height="297mm"
   id="svg2"
   version="1.1"
   inkscape:version="0.48.3.1 r9886"
   sodipodi:docname="Neues Dokument 1">
  <defs
     id="defs4" />
  <sodipodi:namedview
     id="base"
     pagecolor="#ffffff"
     bordercolor="#666666"
     borderopacity="1.0"
     inkscape:pageopacity="0.0"
     inkscape:pageshadow="2"
     inkscape:zoom="1.979899"
     inkscape:cx="454.11075"
     inkscape:cy="842.88765"
     inkscape:document-units="px"
     inkscape:current-layer="layer1"
     showgrid="false"
     inkscape:window-width="1920"
     inkscape:window-height="1053"
     inkscape:window-x="1591"
     inkscape:window-y="-9"
     inkscape:window-maximized="1" />
  <metadata
     id="metadata7">
    <rdf:RDF>
      <cc:Work
         rdf:about="">
        <dc:format>image/svg+xml</dc:format>
        <dc:type
           rdf:resource="http://purl.org/dc/dcmitype/StillImage" />
        <dc:title></dc:title>
      </cc:Work>
    </rdf:RDF>
  </metadata>
  <g
     inkscape:label="Ebene 1"
     inkscape:groupmode="layer"
     id="layer1">
    <path
       style="fill:none;stroke:#000000;stroke-width:1px;stroke-linecap:butt;stroke-linejoin:miter;stroke-opacity:1"
       d="M 104.04571,46.755323 92.428958,52.311162 84.852814,65.443145 82.327432,89.686806 71.215754,109.38478 82.327432,131.60814 103.54064,126.0523 110.6117,134.13352 104.55079,164.94317 91.923882,172.01424 80.812204,165.44825 77.27667,188.68176 78.791899,219.49141 76.771593,246.26045 96.974644,248.78583 124.24876,263.93812 143.44166,269.49396 159.09903,267.97873 168.69548,284.14117 162.12948,294.74777 157.07872,309.39499 150.51273,328.58788 160.10918,349.80109 165.15994,351.31632 167.18025,339.19449 178.797,339.19449 180.81731,346.77063 197.48482,349.29601 206.5762,355.862 201.02036,371.51937 220.21326,374.04475 227.28432,401.31887 243.44676,400.81379 252.03306,406.87471 263.14474,419.50161 275.26657,424.0473 282.33764,433.13867 286.37825,439.70466 299.51023,429.60314 327.28942,439.70466 345.97725,443.74527 341.93664,451.82649 346.9874,457.38233 363.14984,455.8671 367.69553,464.4534 395.47472,467.98893 399.51533,456.37218 424.76915,450.81634 418.20315,442.73512 417.69808,423.03715 411.63716,402.32902 421.23361,378.08536 442.44682,368.99399 453.05342,374.04475 456.08387,383.13612 469.72093,386.16658 479.31738,382.12597 483.86307,365.45845 496.99505,361.41784 506.08643,363.94322 512.14734,358.89246 522.24887,347.78078 516.18795,342.73002 532.85547,343.2351 540.43161,341.71987 546.49253,347.27571 554.06867,338.18433 560.63466,348.28586 579.82756,351.82139 605.08137,337.67926 614.17275,329.09296 614.67782,308.88991 623.26412,314.95082 629.83011,304.8493 621.74889,296.76808 612.15244,298.28331 605.58645,292.72747 590.93924,293.73762 585.3834,300.30361 568.21081,277.57518 557.60421,275.55487 553.05852,264.94827 545.98745,253.8366 520.73364,232.11832 515.1778,215.4508 505.07627,211.91526 496.48998,219.99648 482.85292,221.51171 465.17525,208.37973 433.35544,206.35943 410.12193,191.20714 394.46457,191.71221 383.85797,198.78328 367.69553,195.75282 356.58385,181.61069 342.44171,188.68176 327.7945,190.70206 312.64221,181.61069 306.5813,167.46855 297.995,150.29596 275.77165,142.21474 259.6092,129.58783 253.54829,112.41524 234.35539,93.22234 224.25387,74.029442 215.66757,56.351772 182.33253,58.877154 166.67517,63.927916 139.40105,66.453298 119.198,60.897459 z"
       id="path3008"
       inkscape:connector-curvature="0" />
  </g>
</svg>
